<svg xmlns="http://www.w3.org/2000/svg" x="0px" y="0px"
width="50" height="50"
viewBox="0 0 172 172"
style=" fill:#000000;"><g fill="none" fill-rule="nonzero" stroke="none" stroke-width="1" stroke-linecap="butt" stroke-linejoin="miter" stroke-miterlimit="10" stroke-dasharray="" stroke-dashoffset="0" font-family="none" font-weight="none" font-size="none" text-anchor="none" style="mix-blend-mode: normal"><path d="M0,172v-172h172v172z" fill="none"></path><g fill="#333333"><path d="M119.73022,15.48462c-1.0918,0.10498 -2.1521,0.5459 -3.04443,1.33325c-1.77417,1.54321 -2.33057,3.93677 -1.41724,6.08887c4.12573,9.78418 6.01538,20.18774 5.61646,30.91675c-1.39624,37.77197 -32.09253,68.41577 -69.8645,69.75952c-8.67139,0.30444 -17.2063,-0.90283 -25.36328,-3.60083c-2.22559,-0.73486 -4.57715,0.0105 -5.98389,1.90015c-1.40674,1.90015 -1.43823,4.38818 -0.06299,6.31982c14.74976,20.92261 38.29688,33.04785 63.70215,33.04785c1.57471,0 3.15991,-0.05249 4.74512,-0.13647c38.60132,-2.29907 69.95898,-33.06885 72.95093,-71.58618c2.32007,-29.95093 -12.25122,-58.0332 -38.03442,-73.29736c-1.01831,-0.59839 -2.1416,-0.85034 -3.2439,-0.74536zM120.23413,20.84912c24.00903,14.21435 37.58301,40.37549 35.42041,68.2583c-2.79248,35.86133 -31.98755,64.5 -67.91186,66.6416c-25.33179,1.49072 -49.15186,-9.96265 -63.76514,-30.6543c8.75537,2.88696 17.92017,4.18872 27.22143,3.86328c40.58545,-1.44873 73.54932,-34.36011 75.06104,-74.92456c0.41992,-11.52686 -1.6062,-22.69678 -6.02588,-33.18433zM141.51367,59.21948c-0.35693,-0.0105 -0.70337,0.04199 -1.0498,0.16797c-1.39624,0.50391 -2.1206,2.04712 -1.6062,3.44336c0.70337,1.93164 1.30176,3.90527 1.79517,5.8999c0.30444,1.21777 1.40674,2.03662 2.61401,2.03662c0.20996,0 0.43042,-0.02099 0.64038,-0.07348c1.43823,-0.35693 2.32007,-1.81616 1.96314,-3.2544c-0.5354,-2.1731 -1.19678,-4.34619 -1.96314,-6.4563c-0.38843,-1.0393 -1.35425,-1.71118 -2.39355,-1.76367zM144.78906,76.97168c-1.48022,0.06299 -2.62451,1.31226 -2.56152,2.80298c0.43042,10.30908 -1.95264,20.52368 -6.88672,29.5415c-0.71387,1.30176 -0.23096,2.93945 1.0708,3.64282c0.40942,0.23096 0.85034,0.33594 1.28076,0.33594c0.95532,0 1.87915,-0.50391 2.36206,-1.39624c5.40649,-9.87866 8.01001,-21.06958 7.5376,-32.36548c-0.06299,-1.48022 -1.27026,-2.61401 -2.80298,-2.56152zM106.49219,130.0603c-0.34643,0.04199 -0.68237,0.15747 -1.00781,0.33594c-1.29126,0.74536 -1.72168,2.39355 -0.97632,3.68482l2.6875,4.65064c0.49341,0.86084 1.39624,1.34375 2.32007,1.34375c0.46191,0 0.92383,-0.11548 1.34375,-0.36743c1.29126,-0.73486 1.72168,-2.38306 0.97632,-3.66382l-2.6875,-4.65064c-0.5564,-0.96582 -1.6167,-1.45923 -2.65601,-1.33325zM66.68359,135.29883c-1.02881,0.14697 -1.93164,0.89233 -2.22559,1.97363l-1.38574,5.19653c-0.38843,1.42773 0.47241,2.89746 1.90015,3.28589c0.23096,0.06299 0.47241,0.09448 0.70337,0.09448c1.18628,0 2.26758,-0.79785 2.59302,-1.99463l1.38574,-5.19653c0.38843,-1.42773 -0.46191,-2.90796 -1.88965,-3.28589c-0.36743,-0.10498 -0.73486,-0.12598 -1.0813,-0.07349zM94.56641,135.29883c-0.34643,-0.05249 -0.71387,-0.03149 -1.0813,0.07349c-1.42773,0.37793 -2.27808,1.85815 -1.90015,3.28589l1.39624,5.19653c0.32544,1.19678 1.40674,1.99463 2.59302,1.99463c0.23096,0 0.46191,-0.03149 0.70337,-0.09448c1.42773,-0.38843 2.27808,-1.85815 1.90015,-3.28589l-1.38574,-5.19653c-0.29395,-1.0813 -1.19678,-1.82666 -2.22559,-1.97363zM80.625,137.0625c-1.48022,0 -2.6875,1.20728 -2.6875,2.6875v5.375c0,1.48022 1.20728,2.6875 2.6875,2.6875c1.48022,0 2.6875,-1.20728 2.6875,-2.6875v-5.375c0,-1.48022 -1.20728,-2.6875 -2.6875,-2.6875z"></path></g></g></svg>