<svg xmlns="http://www.w3.org/2000/svg" x="0px" y="0px"
width="50" height="50"
viewBox="0 0 172 172"
style=" fill:#000000;"><g fill="none" fill-rule="nonzero" stroke="none" stroke-width="1" stroke-linecap="butt" stroke-linejoin="miter" stroke-miterlimit="10" stroke-dasharray="" stroke-dashoffset="0" font-family="none" font-weight="none" font-size="none" text-anchor="none" style="mix-blend-mode: normal"><path d="M0,172v-172h172v172z" fill="none"></path><g fill="#ffffff"><path d="M86.54422,5.375c-1.46633,0.01363 -2.80486,0.83717 -3.47806,2.13991c-0.6732,1.30274 -0.57064,2.87097 0.2665,4.07493c2.22258,3.28965 2.00223,4.71632 1.8275,5.59672c-0.2053,1.03488 -0.80512,1.83 -1.96187,3.30562c-1.15676,1.47563 -2.94185,3.8514 -2.97641,7.14875v0.00672c-0.04028,3.94122 2.11199,6.6565 3.46016,8.13641c0.93873,1.09465 2.39869,1.59186 3.81041,1.29768c1.41171,-0.29418 2.55156,-1.33314 2.97493,-2.71163c0.42337,-1.37849 0.0632,-2.87815 -0.94002,-3.91402c-0.76399,-0.83865 -1.40538,-1.95623 -1.3975,-2.72781c0.00688,-0.64145 0.23485,-1.01225 1.29,-2.35828c1.05516,-1.34603 2.8664,-3.44853 3.50047,-6.64484c0.54079,-2.72472 0.10678,-6.91998 -3.03016,-11.56297c-0.7384,-1.12642 -1.99913,-1.79982 -3.34594,-1.78719zM143.28406,26.04859c-2.18363,-0.06839 -4.00939,1.64607 -4.07828,3.82969c-0.05243,1.13833 -0.38464,2.37229 -0.93391,2.90922c-0.45972,0.44962 -0.88127,0.54688 -2.58,0.7525c-1.69873,0.20562 -4.4675,0.41654 -7.17562,2.23063c-2.29915,1.54142 -4.96315,4.81684 -6.02672,10.32c-0.29916,1.39992 0.18123,2.85225 1.25616,3.79766c1.07493,0.94541 2.57672,1.23641 3.92698,0.76094c1.35026,-0.47548 2.33835,-1.64326 2.58374,-3.0536c0.75275,-3.89493 1.91194,-4.75212 2.66063,-5.25406c0.87635,-0.58704 1.86137,-0.71539 3.72219,-0.94063c1.86081,-0.22525 4.80455,-0.65042 7.16219,-2.95625c2.82194,-2.75859 3.22029,-6.20464 3.31235,-8.20359c0.06433,-1.06791 -0.30656,-2.11635 -1.0281,-2.90625c-0.72154,-0.7899 -1.73223,-1.25392 -2.80158,-1.28625zM30.01938,26.08891c-2.04511,0.00186 -3.75176,1.56207 -3.9366,3.59881c-0.18484,2.03674 1.21305,3.87869 3.22441,4.24869c3.89492,0.75275 4.7454,1.91866 5.24734,2.66734c0.58704,0.87635 0.72211,1.86137 0.94734,3.72219c0.22525,1.86081 0.64371,4.80454 2.94953,7.16219c2.75859,2.82194 6.20465,3.21357 8.2036,3.30562c1.4364,0.10706 2.81749,-0.57498 3.60564,-1.7806c0.78815,-1.20563 0.8588,-2.74433 0.18446,-4.01711c-0.67434,-1.27278 -1.98712,-2.07852 -3.42729,-2.10354c-1.13833,-0.05243 -2.37229,-0.39137 -2.90922,-0.94063c-0.44962,-0.45972 -0.54688,-0.88127 -0.7525,-2.58c-0.20562,-1.69872 -0.41655,-4.4675 -2.23063,-7.17562c-1.54142,-2.29915 -4.81684,-4.96315 -10.32,-6.02672c-0.25868,-0.05304 -0.52203,-0.08005 -0.78609,-0.08063zM86,46.44c-0.56367,-0.00831 -1.12261,0.10394 -1.63937,0.32922c-20.97791,0.91353 -37.92063,18.03623 -37.92063,39.23078c0,21.77818 17.78535,39.56 39.56,39.56c21.77771,0 39.56,-17.78229 39.56,-39.56c0,-21.20096 -16.95074,-38.32762 -37.94078,-39.23078c-0.51055,-0.22248 -1.06232,-0.33467 -1.61922,-0.32922zM86,54.35469c17.48598,0 31.64531,14.16268 31.64531,31.64531c0,17.48645 -14.15887,31.64531 -31.64531,31.64531c-17.48263,0 -31.64531,-14.15933 -31.64531,-31.64531c0,-17.48217 14.16315,-31.64531 31.64531,-31.64531zM98.04,68.0139c-4.02441,0 -7.62629,2.59105 -8.90906,6.40969c-0.50715,1.35458 -0.23469,2.87795 0.71054,3.97276c0.94524,1.09481 2.41257,1.58655 3.82664,1.2824c1.41406,-0.30415 2.54945,-1.35572 2.96095,-2.74235c0.2033,-0.6052 0.77071,-1.00781 1.41094,-1.00781c0.64023,0 1.20763,0.40261 1.41094,1.00781c0.4115,1.38663 1.54688,2.4382 2.96095,2.74235c1.41406,0.30415 2.8814,-0.18759 3.82664,-1.2824c0.94524,-1.09481 1.2177,-2.61818 0.71054,-3.97276c-1.28278,-3.81864 -4.88465,-6.40969 -8.90906,-6.40969zM74.1414,68.17515c-3.97733,-0.07706 -7.58678,2.36513 -9.03,6.06703c-0.51397,1.31787 -0.28573,2.80984 0.59872,3.91379c0.88445,1.10395 2.29072,1.65211 3.68897,1.43796c1.39825,-0.21415 2.57599,-1.15807 3.0895,-2.47612c0.24926,-0.63938 0.85914,-1.04035 1.49828,-1.02797h0.00672c0.61507,0.01135 1.19522,0.40621 1.43781,1.02797c0.51351,1.31805 1.69126,2.26197 3.0895,2.47612c1.39825,0.21415 2.80451,-0.33401 3.68897,-1.43796c0.88445,-1.10395 1.11269,-2.59592 0.59872,-3.91379c-1.39485,-3.57504 -4.81714,-5.99584 -8.66719,-6.06703zM147.14063,76.66094c-2.54705,0.04285 -5.7762,0.87901 -9.25844,3.23172c-1.18842,0.78388 -1.86405,2.14582 -1.76917,3.56632c0.09488,1.4205 0.94563,2.68049 2.22775,3.29936c1.28211,0.61887 2.79787,0.50118 3.96909,-0.30818c3.28965,-2.22258 4.71632,-2.00895 5.59672,-1.83422c1.03488,0.2053 1.83,0.81184 3.30562,1.9686c1.47563,1.15676 3.8514,2.93513 7.14875,2.96969h0.00672c3.94122,0.04028 6.6565,-2.11199 8.13641,-3.46015c1.09466,-0.93873 1.59187,-2.39869 1.29769,-3.81041c-0.29418,-1.41172 -1.33314,-2.55157 -2.71164,-2.97494c-1.37849,-0.42337 -2.87816,-0.06319 -3.91402,0.94003c-0.83865,0.76399 -1.95623,1.40538 -2.72781,1.3975c-0.64145,-0.00688 -1.01225,-0.23485 -2.35828,-1.29c-1.34603,-1.05516 -3.44852,-2.8664 -6.64485,-3.50047c-0.68118,-0.1352 -1.45551,-0.20913 -2.30453,-0.19485zM14.84844,76.78187c-3.94122,-0.04027 -6.6565,2.11199 -8.13641,3.46016c-1.09465,0.93873 -1.59186,2.39869 -1.29769,3.81041c0.29418,1.41172 1.33314,2.55157 2.71164,2.97494c1.37849,0.42337 2.87815,0.0632 3.91402,-0.94003c0.83865,-0.76399 1.95623,-1.40538 2.72781,-1.3975c0.64145,0.00688 1.01225,0.23485 2.35828,1.29c1.34603,1.05516 3.44853,2.8664 6.64484,3.50047c2.72487,0.53913 6.92306,0.10471 11.56297,-3.03016c1.8108,-1.22452 2.28608,-3.68513 1.06156,-5.49594c-1.22452,-1.8108 -3.68513,-2.28608 -5.49594,-1.06156c-3.28965,2.22258 -4.7096,2.00223 -5.59,1.8275c-1.03488,-0.20529 -1.83,-0.80512 -3.30562,-1.96187c-1.47563,-1.15676 -3.85812,-2.94185 -7.15547,-2.97641zM68.8,89.44c-1.04497,-0.00069 -2.03361,0.47361 -2.68704,1.28908c-0.65342,0.81547 -0.9008,1.88373 -0.67234,2.90342c2.15457,9.58044 10.74086,16.4475 20.55937,16.4475c9.81852,0 18.4048,-6.86706 20.55937,-16.4475c0.22846,-1.01969 -0.01891,-2.08795 -0.67234,-2.90342c-0.65342,-0.81547 -1.64207,-1.28977 -2.68704,-1.28908zM74.7864,96.32h22.42719c-2.57052,3.8988 -6.34467,6.88 -11.2136,6.88c-4.86892,0 -8.64308,-2.9812 -11.2136,-6.88zM43.31578,122.36187c-1.88079,0.04741 -3.46806,1.41274 -3.7961,3.26531c-0.75275,3.89493 -1.91866,4.7454 -2.66734,5.24735c-0.87524,0.58451 -1.85781,0.72249 -3.71547,0.94734c-1.86081,0.22525 -4.80455,0.64371 -7.16219,2.94953c-2.82194,2.75859 -3.22029,6.20465 -3.31234,8.2036c-0.06509,1.41279 0.62858,2.75296 1.81964,3.51557c1.19106,0.76261 2.69853,0.83177 3.95442,0.18143c1.25589,-0.65035 2.06936,-1.92137 2.13391,-3.33418c0.05242,-1.13833 0.38465,-2.37229 0.93391,-2.90922c0.45972,-0.44962 0.88127,-0.54688 2.58,-0.7525c1.69873,-0.20561 4.4675,-0.41655 7.17563,-2.23063c2.29915,-1.54142 4.96315,-4.81684 6.02672,-10.32c0.24689,-1.18278 -0.06024,-2.41354 -0.83389,-3.34165c-0.77365,-0.92811 -1.92899,-1.45183 -3.13689,-1.42194zM122.89937,122.4089c-2.04511,0.00186 -3.75176,1.56207 -3.9366,3.59881c-0.18484,2.03674 1.21305,3.87869 3.22441,4.24869c3.89493,0.75275 4.7454,1.91866 5.24735,2.66735c0.58704,0.87635 0.7221,1.86137 0.94734,3.72219c0.22525,1.86081 0.64371,4.80454 2.94953,7.16219c2.75859,2.82194 6.20465,3.21357 8.2036,3.30562c1.4364,0.10706 2.81749,-0.57498 3.60564,-1.7806c0.78815,-1.20563 0.8588,-2.74433 0.18446,-4.01711c-0.67434,-1.27278 -1.98712,-2.07852 -3.42729,-2.10354c-1.13833,-0.05243 -2.37229,-0.39136 -2.90922,-0.94063c-0.44962,-0.45972 -0.54688,-0.88127 -0.7525,-2.58c-0.20561,-1.69873 -0.41655,-4.4675 -2.23063,-7.17562c-1.54142,-2.29915 -4.81684,-4.96315 -10.32,-6.02672c-0.25868,-0.05304 -0.52203,-0.08005 -0.7861,-0.08063zM86.54422,136.095c-1.46633,0.01363 -2.80486,0.83717 -3.47806,2.13991c-0.6732,1.30274 -0.57064,2.87097 0.2665,4.07494c2.22258,3.28965 2.00223,4.71632 1.8275,5.59672c-0.2053,1.03488 -0.80512,1.83 -1.96187,3.30562c-1.15676,1.47563 -2.94185,3.8514 -2.97641,7.14875v0.00672c-0.04028,3.94122 2.11199,6.6565 3.46016,8.13641c0.93873,1.09466 2.39869,1.59187 3.81041,1.29769c1.41172,-0.29418 2.55157,-1.33314 2.97494,-2.71164c0.42337,-1.37849 0.06319,-2.87816 -0.94003,-3.91402c-0.76399,-0.83865 -1.40538,-1.95623 -1.3975,-2.72781c0.00688,-0.64145 0.23485,-1.01225 1.29,-2.35828c1.05516,-1.34603 2.8664,-3.44852 3.50047,-6.64485c0.54079,-2.72472 0.10678,-6.91998 -3.03016,-11.56297c-0.7384,-1.12642 -1.99913,-1.79982 -3.34594,-1.78719z"></path></g></g></svg>